<svg width="61" height="60" viewBox="0 0 61 60" fill="none" xmlns="http://www.w3.org/2000/svg">
<g clip-path="url(#clip0_1_2)">
<path d="M52.5 0H8.5C4.08172 0 0.5 3.58172 0.5 8V52C0.5 56.4183 4.08172 60 8.5 60H52.5C56.9183 60 60.5 56.4183 60.5 52V8C60.5 3.58172 56.9183 0 52.5 0Z" fill="#D9F3E1"/>
<path d="M42.6588 10.15H19.0088V48.85H42.6588V10.15Z" fill="#FCFFFE"/>
<path d="M36.209 10.15H25.459V14.45H36.209V10.15Z" fill="#00CE3F"/>
<path d="M34.8652 15.1667H26.8027C25.0738 15.1667 23.6673 13.7602 23.6673 12.0312C23.6673 11.2913 23.0635 10.6875 22.3236 10.6875H21.4277C20.686 10.6875 20.084 10.0855 20.084 9.34375C20.084 8.602 20.686 8 21.4277 8H22.3236C24.5452 8 26.3548 9.80958 26.3548 12.0312C26.3548 12.2785 26.5555 12.4792 26.8027 12.4792H34.8652C35.1125 12.4792 35.3132 12.2785 35.3132 12.0312C35.3132 9.80958 37.1227 8 39.3444 8H40.2402C40.982 8 41.584 8.602 41.584 9.34375C41.584 10.0855 40.982 10.6875 40.2402 10.6875H39.3444C38.6044 10.6875 38.0007 11.2913 38.0007 12.0312C38.0007 13.7602 36.5942 15.1667 34.8652 15.1667Z" fill="black"/>
<path d="M40.2396 50.9H21.4271C18.7644 50.9 16.6 48.7356 16.6 46.0729V12.9271C16.6 10.2644 18.7644 8.1 21.4271 8.1H40.2396C42.9023 8.1 45.0667 10.2644 45.0667 12.9271V46.0729C45.0667 48.7356 42.9023 50.9 40.2396 50.9ZM21.4271 10.5875C20.1374 10.5875 19.0875 11.6374 19.0875 12.9271V46.0729C19.0875 47.3626 20.1374 48.4125 21.4271 48.4125H40.2396C41.5293 48.4125 42.5792 47.3626 42.5792 46.0729V12.9271C42.5792 11.6374 41.5293 10.5875 40.2396 10.5875H21.4271Z" fill="black" stroke="#D9F3E1" stroke-width="0.2"/>
<path fill-rule="evenodd" clip-rule="evenodd" d="M30.84 22C30.0116 22 29.34 22.6716 29.34 23.5V29.5H23.34C22.5116 29.5 21.84 30.1716 21.84 31C21.84 31.8284 22.5116 32.5 23.34 32.5H29.34V38.5C29.34 39.3284 30.0116 40 30.84 40C31.6685 40 32.34 39.3284 32.34 38.5V32.5H38.34C39.1685 32.5 39.84 31.8284 39.84 31C39.84 30.1716 39.1685 29.5 38.34 29.5H32.34V23.5C32.34 22.6716 31.6685 22 30.84 22Z" fill="#00CE3F"/>
</g>
<defs>
<clipPath id="clip0_1_2">
<rect width="61" height="60" fill="white"/>
</clipPath>
</defs>
</svg>
